# xmcd CD database file
#
# Track frame offsets:
#	150
#	15813
#	38328
#	56355
#	69183
#	85926
#	102603
#	126333
#	138624
#	155235
#	170046
#	188064
#
# Disc length: 2701 seconds
#
# Revision: 0
# Processed by: cddbd v1.5.1PL2 Copyright (c) Steve Scherf et al.
# Submitted via: CDex 1.51
#
DISCID=9b0a8b0c
DTITLE=Steve Waring - Blues
DYEAR=1998
DGENRE=Blues
TTITLE0=Trou dans la tête
TTITLE1=Le blues de l'hosto Saint-Jacques
TTITLE2=Maggie et Lazare
TTITLE3=Mes oreilles n'ont pas de paupières
TTITLE4=Amour, reviens-moi
TTITLE5=Le vagabond
TTITLE6=Jean doucement
TTITLE7=La dèche
TTITLE8=Mal de chien
TTITLE9=Le bagne
TTITLE10=Nicotine
TTITLE11=Boum kaka
EXTD=YEAR: 1998
EXTT0=
EXTT1=
EXTT2=
EXTT3=
EXTT4=
EXTT5=
EXTT6=
EXTT7=
EXTT8=
EXTT9=
EXTT10=
EXTT11=
PLAYORDER=
